#N canvas 801 152 450 300 10;
#X obj 12 273 comport 2 115200;
#X msg 70 249 open 2;
#X obj 12 102 spell;
#X obj 12 127 thresh;
#X floatatom 13 17 5 0 0 0 - - -;
#X obj 12 157 list append;
#X obj 12 182 list append 13;
#X floatatom 75 42 5 0 11 0 - - -;
#X text 52 16 Velocity (ms between 20 and 80);
#X text 116 43 Solenoid Select (between 0 and 11);
#X obj 75 126 + 97;
#X connect 1 0 0 0;
#X connect 2 0 3 0;
#X connect 3 0 5 0;
#X connect 4 0 2 0;
#X connect 5 0 6 0;
#X connect 6 0 0 0;
#X connect 7 0 10 0;
#X connect 10 0 5 1;
